<svg xmlns="http://www.w3.org/2000/svg" width="204.552" height="77.902" viewBox="0 0 204.552 77.902">
  <g id="Group_652" data-name="Group 652" transform="translate(-65 -14.051)">
    <g id="Group_32" data-name="Group 32" transform="translate(65 14.051)">
      <path id="Path_2906" data-name="Path 2906" d="M490.111,138.3q-15.343,10.352-30.827,10.355c-10.3,0-20.6-3.454-30.831-10.355l4.03-5.972c18.034,12.171,35.569,12.171,53.6,0Z" transform="translate(-328.928 -132.328)" fill="#cf001b"/>
      <rect id="Rectangle_31" data-name="Rectangle 31" width="7.204" height="43.221" transform="translate(43.221 12.351)" fill="#247e28"/>
      <path id="Path_2907" data-name="Path 2907" d="M321.652,148.02h-21.52v43.221h7.2V177.015h14.317a14.5,14.5,0,0,0,0-28.995m0,21.791H307.336V155.224h14.317a7.294,7.294,0,0,1,0,14.587" transform="translate(-300.132 -135.849)" fill="#247e28"/>
      <path id="Path_2908" data-name="Path 2908" d="M393.405,148.252l-18.97,43.222h7.87l4.744-10.806h22.287l4.744,10.806h7.871l-18.971-43.222Zm-3.2,25.213,7.986-18.189,7.985,18.189Z" transform="translate(-316.806 -135.901)" fill="#247e28"/>
      <path id="Path_2909" data-name="Path 2909" d="M447.307,157.373a52.981,52.981,0,0,0,7.2,1.84v34.3h-7.2Z" transform="translate(-333.159 -137.948)" fill="#247e28"/>
      <path id="Path_2910" data-name="Path 2910" d="M479.815,159.213a52.951,52.951,0,0,0,7.2-1.84v36.144h-7.2Z" transform="translate(-340.454 -137.948)" fill="#247e28"/>
      <path id="Path_2911" data-name="Path 2911" d="M528.046,146.859a22.691,22.691,0,1,0,22.691,22.691,22.716,22.716,0,0,0-22.691-22.691m0,38.179a15.488,15.488,0,1,1,15.488-15.487,15.505,15.505,0,0,1-15.488,15.487" transform="translate(-346.186 -135.589)" fill="#247e28"/>
    </g>
    <path id="Path_6090" data-name="Path 6090" d="M1.638.182V-11.536H2.674V.182Zm7.07-10.724H4.55v-.994H13.9v.994H9.744V.182H8.708ZM22.274.182h-1.12l-1.484-3.7H14.518L13.034.182h-1.12l4.7-11.718h.952Zm-7.35-4.718h4.34l-2.17-5.376ZM25.116-.812h5.8V.182H24.066V-11.536h1.05Zm7.672.994V-11.536h1.036V.182Zm12.922,0H44.59l-1.484-3.7H37.954L36.47.182H35.35l4.7-11.718h.952ZM38.36-4.536H42.7L40.53-9.912Zm10.192-5.572V.182H47.5V-11.536h1.372l6.384,10.29v-10.29h1.05V.182H54.936ZM65.24-4.914v5.1H64.2V-11.536H67.97a5.944,5.944,0,0,1,1.869.259,3.541,3.541,0,0,1,1.267.7,2.612,2.612,0,0,1,.714,1.043,3.584,3.584,0,0,1,.224,1.26,4.315,4.315,0,0,1-.119.994,2.557,2.557,0,0,1-.455.952,3.111,3.111,0,0,1-.91.791,3.539,3.539,0,0,1-1.218.455L72.688.182H71.47l-3.262-5.1H65.24Zm0-5.628v4.634h2.534a6.735,6.735,0,0,0,1.372-.126,2.611,2.611,0,0,0,1-.413,1.866,1.866,0,0,0,.609-.735,2.6,2.6,0,0,0,.21-1.106,2.506,2.506,0,0,0-.168-.938,1.663,1.663,0,0,0-.539-.707,2.73,2.73,0,0,0-.987-.448,6,6,0,0,0-1.5-.161Zm9.45-.994h6.832v.994h-5.8v4.116h5.25V-5.4h-5.25V-.812h5.866V.182h-6.9Zm8.974,9.842a7.693,7.693,0,0,0,1.631.763,5.606,5.606,0,0,0,1.757.273,3.757,3.757,0,0,0,2.233-.581,1.937,1.937,0,0,0,.8-1.673,2.012,2.012,0,0,0-.182-.882,2.02,2.02,0,0,0-.532-.672,3.54,3.54,0,0,0-.861-.518,10.959,10.959,0,0,0-1.141-.42l-.84-.252a4.94,4.94,0,0,1-2.275-1.267,2.757,2.757,0,0,1-.735-1.925,2.5,2.5,0,0,1,.315-1.281,2.71,2.71,0,0,1,.833-.889,3.636,3.636,0,0,1,1.155-.511,5.321,5.321,0,0,1,1.309-.161,7.234,7.234,0,0,1,2.037.28,7.653,7.653,0,0,1,1.869.84l-.532.882a6.875,6.875,0,0,0-1.631-.763,5.932,5.932,0,0,0-1.771-.259,4.237,4.237,0,0,0-.987.112,2.489,2.489,0,0,0-.8.329,1.652,1.652,0,0,0-.525.553,1.528,1.528,0,0,0-.2.784,1.825,1.825,0,0,0,.567,1.407,4.54,4.54,0,0,0,1.715.889l.924.28a10.078,10.078,0,0,1,1.2.448,4.542,4.542,0,0,1,1.071.665,3.27,3.27,0,0,1,.777.952,2.668,2.668,0,0,1,.3,1.3A2.958,2.958,0,0,1,90.076-.532a4.759,4.759,0,0,1-3.024.854,7.427,7.427,0,0,1-2.037-.28,7.529,7.529,0,0,1-1.9-.84Zm12-8.848H91.5v-.994h9.352v.994H96.7V.182H95.662ZM109.242.182h-1.12l-1.484-3.7h-5.152L100,.182h-1.12l4.7-11.718h.952Zm-7.35-4.718h4.34l-2.17-5.376ZM114.856.322a5.991,5.991,0,0,1-2.275-.378A3.9,3.9,0,0,1,111.1-1.085a3.823,3.823,0,0,1-.805-1.505,6.645,6.645,0,0,1-.238-1.792v-7.154h1.022v7a4.152,4.152,0,0,0,.9,2.912,3.772,3.772,0,0,0,2.884.966,3.768,3.768,0,0,0,2.87-.959,4.148,4.148,0,0,0,.9-2.919v-7h1.022v7.154a6.645,6.645,0,0,1-.238,1.792,3.87,3.87,0,0,1-.8,1.505,3.825,3.825,0,0,1-1.484,1.029A6,6,0,0,1,114.856.322Zm8.96-5.236v5.1H122.78V-11.536h3.766a5.944,5.944,0,0,1,1.869.259,3.541,3.541,0,0,1,1.267.7,2.612,2.612,0,0,1,.714,1.043,3.584,3.584,0,0,1,.224,1.26,4.315,4.315,0,0,1-.119.994,2.557,2.557,0,0,1-.455.952,3.111,3.111,0,0,1-.91.791,3.539,3.539,0,0,1-1.218.455L131.264.182h-1.218l-3.262-5.1h-2.968Zm0-5.628v4.634h2.534a6.735,6.735,0,0,0,1.372-.126,2.611,2.611,0,0,0,1-.413,1.866,1.866,0,0,0,.609-.735,2.6,2.6,0,0,0,.21-1.106,2.506,2.506,0,0,0-.168-.938,1.663,1.663,0,0,0-.539-.707,2.73,2.73,0,0,0-.987-.448,6,6,0,0,0-1.5-.161ZM142.142.182h-1.12l-1.484-3.7h-5.152L132.9.182h-1.12l4.7-11.718h.952Zm-7.35-4.718h4.34l-2.17-5.376Zm10.192-5.572V.182h-1.05V-11.536h1.372l6.384,10.29v-10.29h1.05V.182h-1.372Zm13.79-.434h-4.158v-.994h9.352v.994H159.81V.182h-1.036Z" transform="translate(84.362 91.631)" fill="#d0001b"/>
  </g>
</svg>
